<svg width="64" height="64" version="1.1" viewBox="0 0 16.9 16.9" xmlns="http://www.w3.org/2000/svg">
 <rect x="-1.73e-18" y="-1.73e-18" width="16.9" height="16.9" ry="4.23" fill="#999"/>
 <text fill="black" font-family="sans-serif" font-size="10.6px" letter-spacing="0px" word-spacing="0px" style="line-height:1.25;shape-inside:url(#rect848);white-space:pre" xml:space="preserve"/>
 <path transform="matrix(1.56 0 0 1.56 -11.6 -.566)" d="m13.1 9.79q-.858 0-1.59-.253-.723-.253-1.25-.754-.522-.501-.811-1.25-.284-.749-.284-1.73 0-.915.274-1.66.274-.744.796-1.28.501-.512 1.24-.791.744-.279 1.62-.279.486 0 .873.0568.393.0517.723.14.346.0982.625.222.284.119.496.222v1.87h-.227q-.145-.124-.367-.295-.217-.171-.496-.336-.284-.165-.615-.279t-.708-.114q-.419 0-.796.134-.377.129-.698.434-.305.295-.496.78-.186.486-.186 1.18 0 .723.202 1.21.207.486.517.765.315.284.703.408.388.119.765.119.362 0 .713-.109.357-.109.656-.295.253-.15.47-.32.217-.171.357-.295h.207v1.84q-.289.129-.553.243t-.553.196q-.377.109-.708.165-.331.0568-.91.0568z" fill="#457" stroke-width=".265" style="inline-size:10.7871;white-space:pre" aria-label="C"/>
</svg>
